<?xml version="1.0" standalone="no"?>
<!DOCTYPE svg PUBLIC "-//W3C//DTD SVG 20010904//EN"
 "http://www.w3.org/TR/2001/REC-SVG-20010904/DTD/svg10.dtd">
<svg version="1.0" xmlns="http://www.w3.org/2000/svg"
 width="375.000000pt" height="123.000000pt" viewBox="0 0 375.000000 123.000000"
 preserveAspectRatio="xMidYMid meet">
<metadata>
Created by potrace 1.16, written by Peter Selinger 2001-2019
</metadata>
<g transform="translate(0.000000,123.000000) scale(0.100000,-0.100000)"
fill="#000000" stroke="none">
<path d="M613 1213 c-8 -2 -13 -22 -13 -44 0 -46 -2 -47 -134 -80 -45 -11 -89
-25 -97 -29 -15 -10 -10 -30 78 -359 l28 -104 -53 -48 c-50 -46 -55 -48 -75
-34 -17 12 -53 15 -157 15 -136 0 -136 0 -163 -28 l-27 -28 0 -206 c0 -202 0
-205 24 -231 31 -33 74 -41 197 -35 83 4 105 9 131 28 l30 22 48 -26 48 -26
357 0 c226 0 363 4 376 10 18 10 19 28 19 604 0 532 -2 594 -16 600 -19 7
-583 7 -601 -1z m575 -603 l2 -560 -85 0 c-84 0 -85 0 -85 25 0 14 -1 28 -1
33 -1 4 13 14 30 23 39 19 51 35 51 73 0 17 9 37 23 50 24 22 24 23 20 211 -3
105 -6 196 -8 203 -3 6 -11 12 -20 12 -13 0 -15 -22 -15 -146 0 -104 -3 -145
-11 -142 -7 2 -13 19 -14 38 -3 39 -35 70 -71 70 -33 0 -37 14 -10 39 69 64
17 181 -80 181 -28 0 -44 -8 -70 -34 -44 -44 -47 -99 -9 -144 13 -16 22 -32
18 -36 -8 -8 -86 -8 -107 0 -14 5 -16 34 -16 220 l0 214 55 55 55 55 82 0 c82
-1 83 -1 103 -33 11 -17 33 -38 48 -45 23 -11 27 -19 27 -58 0 -38 3 -45 18
-42 14 3 17 14 17 62 0 58 0 58 -35 70 -27 8 -38 19 -46 46 l-12 35 -121 3
-122 3 -15 -36 c-10 -25 -26 -41 -48 -50 -19 -8 -36 -22 -40 -30 -3 -9 -6
-120 -6 -247 l0 -229 -22 3 -23 3 -3 325 c-1 179 -1 329 2 335 2 6 99 9 272 8
l269 -2 3 -561z m-588 425 c0 -31 -5 -47 -15 -51 -9 -4 -15 -19 -15 -36 0 -22
-9 -39 -34 -61 l-33 -30 27 -101 c15 -55 35 -125 44 -155 23 -78 22 -103 -6
-99 -26 3 -33 20 -78 188 -17 63 -41 153 -54 200 -42 150 -44 137 16 155 151
44 148 44 148 -10z m369 -381 c27 -35 26 -59 -4 -89 -46 -47 -115 -17 -115 50
0 63 80 89 119 39z m-469 -146 l15 -43 254 -5 c223 -4 255 -7 264 -22 8 -12 7
-21 -2 -32 -10 -12 -41 -16 -149 -18 -121 -3 -137 -5 -140 -20 -3 -17 10 -18
166 -18 94 0 177 -3 186 -6 22 -9 20 -51 -3 -64 -11 -6 -90 -10 -185 -10 -141
0 -166 -2 -166 -15 0 -13 22 -15 141 -15 144 0 179 -7 179 -38 0 -37 -19 -42
-173 -42 -136 0 -148 -1 -145 -17 3 -16 19 -19 112 -23 87 -4 111 -8 119 -22
8 -12 7 -21 -2 -32 -12 -14 -48 -16 -265 -16 l-252 0 -42 36 -42 36 0 159 0
160 51 55 c29 30 55 54 58 54 4 0 13 -19 21 -42z m-330 -155 c0 -136 7 -172
29 -159 7 5 11 56 11 152 l0 144 55 0 c43 0 56 -4 65 -19 15 -30 13 -383 -3
-404 -11 -15 -29 -17 -142 -15 l-130 3 -3 205 c-1 112 0 210 2 217 4 8 25 13
61 13 l55 0 0 -137z"/>
<path d="M1501 801 c-17 -11 -14 -30 43 -221 38 -126 53 -154 88 -166 44 -13
73 31 138 209 12 31 25 57 29 57 5 0 30 -55 57 -122 38 -96 55 -126 76 -138
25 -13 29 -13 55 6 22 16 35 43 56 115 16 52 32 101 35 109 4 8 9 -33 12 -91
3 -68 10 -112 19 -123 11 -14 37 -16 170 -16 86 0 162 4 169 9 8 5 12 17 10
27 -3 17 -16 19 -148 24 l-145 5 0 45 0 45 112 5 c114 5 141 14 130 44 -5 13
-26 16 -114 16 -59 0 -114 4 -121 9 -8 5 -12 23 -10 47 l3 39 125 2 c150 3
170 7 170 33 0 10 -4 21 -8 24 -4 2 -95 6 -202 7 l-195 3 -18 -55 c-10 -30
-31 -96 -45 -147 -15 -51 -31 -93 -37 -94 -5 0 -35 61 -66 137 -54 134 -72
161 -102 149 -15 -5 -20 -16 -77 -154 -52 -126 -61 -143 -69 -134 -4 5 -24 68
-45 139 -20 72 -41 137 -45 145 -10 18 -31 23 -50 11z"/>
<path d="M3128 799 c-16 -9 -127 -202 -179 -311 -19 -40 -20 -49 -9 -63 20
-25 41 -14 70 35 l26 45 125 3 124 2 24 -44 c12 -25 30 -47 38 -50 19 -8 43
11 43 32 0 21 -160 312 -187 340 -24 24 -48 27 -75 11z"/>
<path d="M3303 803 c-30 -12 -8 -46 82 -129 l94 -87 3 -80 c2 -62 7 -82 20
-90 33 -21 48 8 48 92 l0 77 100 93 c97 90 100 94 84 112 -9 11 -22 19 -29 19
-6 0 -51 -36 -100 -80 -75 -69 -90 -79 -104 -68 -9 7 -49 43 -90 80 -71 66
-82 72 -108 61z"/>
<path d="M2640 781 c-6 -11 -10 -90 -10 -184 0 -138 3 -167 16 -178 30 -25 49
1 52 74 l3 65 124 4 c121 3 124 4 154 32 37 36 48 90 27 139 -24 58 -54 67
-215 67 -128 0 -141 -2 -151 -19z m296 -66 c22 -33 11 -73 -23 -86 -14 -5 -67
-8 -117 -7 l-91 3 -3 44 c-5 71 -5 71 112 71 101 0 106 -1 122 -25z"/>
</g>
</svg>
