<?xml version="1.0" standalone="no"?>
<!DOCTYPE svg PUBLIC "-//W3C//DTD SVG 20010904//EN"
 "http://www.w3.org/TR/2001/REC-SVG-20010904/DTD/svg10.dtd">
<svg version="1.0" xmlns="http://www.w3.org/2000/svg"
 width="124.000000pt" height="123.000000pt" viewBox="0 0 124.000000 123.000000"
 preserveAspectRatio="xMidYMid meet">
<metadata>
Created by potrace 1.16, written by Peter Selinger 2001-2019
</metadata>
<g transform="translate(0.000000,123.000000) scale(0.100000,-0.100000)"
fill="#000000" stroke="none">
<path d="M613 1213 c-8 -2 -13 -22 -13 -44 0 -46 -2 -47 -134 -80 -45 -11 -89
-25 -97 -29 -15 -10 -10 -30 78 -359 l28 -104 -53 -48 c-50 -46 -55 -48 -75
-34 -17 12 -53 15 -157 15 -136 0 -136 0 -163 -28 l-27 -28 0 -206 c0 -202 0
-205 24 -231 31 -33 74 -41 197 -35 83 4 105 9 131 28 l30 22 48 -26 48 -26
357 0 c226 0 363 4 376 10 18 10 19 28 19 604 0 532 -2 594 -16 600 -19 7
-583 7 -601 -1z m575 -603 l2 -560 -85 0 c-84 0 -85 0 -85 25 0 14 -1 28 -1
33 -1 4 13 14 30 23 39 19 51 35 51 73 0 17 9 37 23 50 24 22 24 23 20 211 -3
105 -6 196 -8 203 -3 6 -11 12 -20 12 -13 0 -15 -22 -15 -146 0 -104 -3 -145
-11 -142 -7 2 -13 19 -14 38 -3 39 -35 70 -71 70 -33 0 -37 14 -10 39 69 64
17 181 -80 181 -28 0 -44 -8 -70 -34 -44 -44 -47 -99 -9 -144 13 -16 22 -32
18 -36 -8 -8 -86 -8 -107 0 -14 5 -16 34 -16 220 l0 214 55 55 55 55 82 0 c82
-1 83 -1 103 -33 11 -17 33 -38 48 -45 23 -11 27 -19 27 -58 0 -38 3 -45 18
-42 14 3 17 14 17 62 0 58 0 58 -35 70 -27 8 -38 19 -46 46 l-12 35 -121 3
-122 3 -15 -36 c-10 -25 -26 -41 -48 -50 -19 -8 -36 -22 -40 -30 -3 -9 -6
-120 -6 -247 l0 -229 -22 3 -23 3 -3 325 c-1 179 -1 329 2 335 2 6 99 9 272 8
l269 -2 3 -561z m-588 425 c0 -31 -5 -47 -15 -51 -9 -4 -15 -19 -15 -36 0 -22
-9 -39 -34 -61 l-33 -30 27 -101 c15 -55 35 -125 44 -155 23 -78 22 -103 -6
-99 -26 3 -33 20 -78 188 -17 63 -41 153 -54 200 -42 150 -44 137 16 155 151
44 148 44 148 -10z m369 -381 c27 -35 26 -59 -4 -89 -46 -47 -115 -17 -115 50
0 63 80 89 119 39z m-469 -146 l15 -43 254 -5 c223 -4 255 -7 264 -22 8 -12 7
-21 -2 -32 -10 -12 -41 -16 -149 -18 -121 -3 -137 -5 -140 -20 -3 -17 10 -18
166 -18 94 0 177 -3 186 -6 22 -9 20 -51 -3 -64 -11 -6 -90 -10 -185 -10 -141
0 -166 -2 -166 -15 0 -13 22 -15 141 -15 144 0 179 -7 179 -38 0 -37 -19 -42
-173 -42 -136 0 -148 -1 -145 -17 3 -16 19 -19 112 -23 87 -4 111 -8 119 -22
8 -12 7 -21 -2 -32 -12 -14 -48 -16 -265 -16 l-252 0 -42 36 -42 36 0 159 0
160 51 55 c29 30 55 54 58 54 4 0 13 -19 21 -42z m-330 -155 c0 -136 7 -172
29 -159 7 5 11 56 11 152 l0 144 55 0 c43 0 56 -4 65 -19 15 -30 13 -383 -3
-404 -11 -15 -29 -17 -142 -15 l-130 3 -3 205 c-1 112 0 210 2 217 4 8 25 13
61 13 l55 0 0 -137z"/>
</g>
</svg>
