<?xml version="1.0" standalone="no"?>
<!DOCTYPE svg PUBLIC "-//W3C//DTD SVG 20010904//EN"
 "http://www.w3.org/TR/2001/REC-SVG-20010904/DTD/svg10.dtd">
<svg version="1.0" xmlns="http://www.w3.org/2000/svg"
 width="469.000000pt" height="154.000000pt" viewBox="0 0 469.000000 154.000000"
 preserveAspectRatio="xMidYMid meet">
<metadata>
Created by potrace 1.16, written by Peter Selinger 2001-2019
</metadata>
<g transform="translate(0.000000,154.000000) scale(0.100000,-0.100000)"
fill="#000000" stroke="none">
<path d="M920 1523 c-108 -3 -156 -7 -162 -16 -4 -6 -8 -29 -8 -49 0 -46 -15
-55 -150 -91 -52 -14 -108 -30 -123 -36 -35 -13 -38 11 51 -330 l66 -255 -60
-53 c-52 -48 -63 -53 -89 -47 -16 4 -107 9 -202 11 l-171 4 -36 -32 -36 -31 0
-244 c0 -274 5 -300 62 -331 28 -15 55 -18 173 -17 140 1 175 8 227 46 15 11
27 7 78 -21 l61 -33 455 3 c380 3 456 6 464 18 17 29 22 230 18 848 -2 404 -7
635 -13 641 -11 11 -372 19 -605 15z m563 -475 c4 -232 7 -549 7 -705 l0 -283
-92 0 c-51 0 -98 4 -104 8 -6 4 -14 22 -17 39 -6 30 -3 34 37 58 43 25 66 62
66 105 0 9 11 31 25 50 25 33 25 37 24 209 -2 233 -9 316 -29 316 -15 0 -18
-36 -29 -323 -1 -41 -18 -33 -27 13 -9 52 -39 84 -85 91 -21 4 -39 10 -39 14
0 4 14 24 30 45 91 115 -50 274 -170 193 -72 -50 -85 -124 -35 -199 14 -21 25
-41 25 -44 0 -3 -33 -5 -72 -3 l-73 3 -7 55 c-3 30 -6 152 -7 270 l-1 214 67
68 67 68 101 0 100 0 63 -61 c57 -54 64 -65 69 -110 4 -31 11 -49 19 -49 18 0
26 35 22 96 -3 46 -5 50 -42 68 -28 14 -44 31 -57 62 l-19 43 -151 3 -150 3
-19 -41 c-12 -29 -31 -50 -62 -68 l-45 -26 -6 -107 c-4 -58 -7 -193 -7 -300
l0 -193 -24 0 -24 0 -7 183 c-3 100 -5 286 -3 412 l3 230 35 6 c19 4 170 7
336 8 l301 1 6 -422z m-735 251 c2 -33 -2 -51 -13 -63 -9 -9 -19 -32 -22 -52
-4 -24 -19 -49 -45 -74 l-40 -38 52 -183 c60 -216 65 -253 33 -257 -16 -2 -26
5 -36 25 -19 36 -167 576 -167 608 0 22 9 27 88 50 48 15 92 28 97 30 6 2 19
3 30 2 16 -2 21 -10 23 -48z m452 -469 c48 -48 46 -88 -6 -129 -35 -27 -75
-27 -102 2 -40 43 -37 100 7 134 25 19 79 15 101 -7z m-568 -212 l11 -38 161
-1 c89 0 229 -4 313 -7 128 -6 155 -10 170 -25 17 -18 17 -19 -6 -38 -19 -15
-40 -19 -110 -20 -156 -3 -236 -12 -236 -29 0 -13 33 -16 218 -20 179 -4 219
-8 227 -20 13 -21 12 -33 -4 -56 -13 -17 -31 -19 -224 -24 -116 -3 -214 -9
-218 -13 -19 -19 30 -27 166 -27 188 0 235 -13 223 -61 -8 -29 -65 -39 -230
-39 -147 0 -180 -7 -156 -31 5 -5 63 -13 129 -18 139 -11 154 -15 154 -46 0
-13 -8 -26 -17 -30 -10 -4 -155 -10 -323 -13 l-305 -4 -57 48 -58 48 0 199 0
199 67 70 c75 77 81 77 105 -4z m-421 -140 c0 -131 9 -221 23 -235 18 -19 26
36 26 195 l0 172 70 0 c61 0 71 -3 81 -22 16 -29 15 -451 0 -490 l-11 -28
-165 0 -165 0 -2 163 c-4 201 -1 345 6 363 4 10 24 14 71 14 l65 0 1 -132z"/>
<path d="M1877 1003 c-15 -14 -5 -73 37 -217 68 -230 87 -266 146 -266 25 0
35 8 60 47 16 25 50 100 76 165 25 65 49 118 53 118 4 0 27 -46 51 -102 83
-197 103 -228 146 -228 43 0 69 40 110 163 21 64 42 117 46 117 4 0 8 -21 8
-47 1 -93 19 -197 37 -210 20 -15 389 -18 411 -4 23 14 9 45 -23 52 -17 4 -73
7 -125 8 -52 1 -119 4 -147 7 l-53 7 0 52 0 53 113 7 c141 8 187 19 187 44 0
27 -19 31 -128 31 -142 0 -170 6 -177 40 -3 15 -3 39 1 54 6 26 7 26 108 27
135 0 243 12 258 27 9 9 10 17 2 30 -10 15 -39 18 -255 23 -134 3 -246 5 -248
3 -2 -2 -28 -81 -57 -175 -29 -95 -57 -176 -63 -182 -11 -11 -38 39 -105 199
-51 122 -82 162 -113 146 -10 -6 -46 -77 -87 -174 -38 -89 -74 -169 -81 -177
-14 -14 -10 -24 -86 219 -23 74 -46 138 -53 142 -14 10 -41 10 -49 1z"/>
<path d="M3896 978 c-36 -49 -112 -179 -173 -301 -40 -79 -53 -114 -49 -132
12 -49 61 -25 101 49 18 32 20 33 99 40 45 3 115 6 157 6 l76 0 34 -57 c36
-62 70 -77 93 -40 9 15 1 37 -44 124 -75 145 -177 315 -197 331 -31 23 -70 15
-97 -20z m76 -95 c18 -21 88 -138 88 -147 0 -3 -49 -6 -110 -6 -60 0 -110 3
-110 8 0 13 99 162 108 162 5 0 16 -8 24 -17z"/>
<path d="M4123 994 c-10 -27 18 -64 123 -161 l102 -95 7 -99 c6 -85 10 -101
28 -114 37 -26 50 0 55 112 l5 97 119 116 c123 118 135 140 87 155 -22 7 -52
-13 -157 -107 -101 -90 -90 -89 -184 -6 -112 100 -137 118 -160 118 -10 0 -21
-7 -25 -16z"/>
<path d="M3314 986 c-18 -13 -19 -28 -19 -231 0 -205 1 -217 20 -231 18 -13
22 -13 36 5 10 12 19 50 23 94 l7 74 146 7 c164 7 192 17 225 76 25 45 20 129
-9 168 -30 40 -80 50 -254 51 -119 1 -160 -2 -175 -13z m348 -83 c26 -26 28
-77 4 -101 -14 -14 -41 -18 -152 -20 l-135 -4 3 69 c3 66 4 68 33 75 17 4 74
6 128 4 85 -1 100 -5 119 -23z"/>
</g>
</svg>
